<svg width="12" height="14" viewBox="0 0 12 14" fill="none" xmlns="http://www.w3.org/2000/svg">
<path d="M4.80027 6.024L5.87502 5.04C6.16889 4.77042 6.37544 4.41923 6.46816 4.03151C6.56087 3.64379 6.53553 3.23723 6.39538 2.864L5.93706 1.641C5.76583 1.18442 5.42685 0.810249 4.98918 0.594722C4.5515 0.379195 4.04806 0.338526 3.58143 0.481C1.86424 1.006 0.54432 2.601 0.950602 4.495C1.21779 5.741 1.72914 7.305 2.69781 8.969C3.66849 10.637 4.77726 11.869 5.72792 12.735C7.16291 14.04 9.21434 13.714 10.5343 12.484C10.8879 12.1542 11.1024 11.7022 11.1342 11.2199C11.166 10.7376 11.0126 10.2613 10.7054 9.888L9.86479 8.868C9.61127 8.55955 9.27118 8.33396 8.8883 8.22026C8.50541 8.10656 8.09724 8.10996 7.7163 8.23L6.32733 8.667C5.96843 8.29726 5.65407 7.8868 5.39068 7.444C5.13652 6.99622 4.93824 6.51899 4.80027 6.023" fill="white"/>
</svg>
